<?xml version="1.0" encoding="UTF-8" standalone="no"?>
<svg>
   <symbol id="hi-logo" xmlns="http://www.w3.org/2000/svg" viewBox="0 0 12.7 12.7" fill="currentColor">
      <path d="M 6.35 0 A 6.3499999 6.3499999 0 0 0 0 6.35 A 6.3499999 6.3499999 0 0 0 6.35 12.7 A 6.3499999 6.3499999 0 0 0 12.7 6.35 A 6.3499999 6.3499999 0 0 0 6.35 0 z M 4.1139608 3.4886759 C 4.1395959 3.4903222 4.1650419 3.495805 4.1904419 3.5052124 C 4.3108565 3.5466049 4.3746355 3.6334413 4.3821615 3.7651449 C 4.3934503 3.8930853 4.3651453 4.0508699 4.2974121 4.2390177 C 4.2334418 4.4271656 4.1452007 4.6286267 4.032312 4.8431152 C 3.9231863 5.0538408 3.8085616 5.262471 3.688147 5.4694336 C 3.601599 5.6199518 3.5070767 5.7667245 3.4054769 5.9097168 L 3.3041911 6.3329468 L 3.1460612 6.9825195 L 3.4395833 6.4797078 C 3.5825757 6.2501675 3.7351127 6.0717637 3.8969198 5.9438232 C 4.0624899 5.8121198 4.2485794 5.7459025 4.455542 5.7459025 C 4.6436898 5.7459025 4.7962267 5.7838148 4.9128784 5.8590739 C 5.02953 5.93057 5.1139283 6.026497 5.1666097 6.1469116 C 5.219291 6.2673262 5.2418318 6.4025701 5.2343058 6.5530884 C 5.2305458 6.6998437 5.2027579 6.8466163 5.1500732 6.9933716 C 5.1425472 7.0159496 5.1252542 7.0687166 5.0989136 7.1515015 C 5.0725729 7.2305235 5.0423465 7.328372 5.0084798 7.4450236 C 4.9783765 7.5579124 4.9467451 7.6744585 4.9128784 7.794873 C 4.8827744 7.9115247 4.8563908 8.0209018 4.8338135 8.1225016 C 4.8149988 8.2241015 4.8053914 8.3013307 4.8053914 8.354012 C 4.8053914 8.5233451 4.8845421 8.6077433 5.0425863 8.6077433 C 5.1178454 8.6077433 5.2099295 8.5722692 5.3190552 8.5007731 C 5.4281808 8.425514 5.565863 8.2897533 5.7314331 8.0940796 C 5.9873141 7.7855172 6.2165635 7.4713527 6.4197632 7.1515015 C 6.6267258 6.8278872 6.796039 6.5401064 6.9277425 6.2879883 C 6.9351246 6.2738951 6.9432937 6.2622033 6.9515137 6.2502645 C 6.9758132 6.203626 7.0087499 6.1703086 7.051766 6.152596 C 7.1157359 6.1224927 7.1819532 6.1167282 7.2496867 6.1355428 C 7.3211829 6.1543575 7.3772761 6.1922697 7.4186686 6.2487142 C 7.4638239 6.3051588 7.4753524 6.3766236 7.4527751 6.4631714 C 7.4076198 6.6400303 7.3625385 6.8241984 7.3173828 7.0161092 C 7.2759902 7.20802 7.2380779 7.3921881 7.2042114 7.569047 C 7.1741081 7.7421431 7.1477245 7.8966015 7.1251465 8.0320679 C 7.1063318 8.1675343 7.0972412 8.2673041 7.0972412 8.3312744 C 7.0972412 8.4027705 7.1120957 8.4665496 7.1421997 8.522994 C 7.172303 8.5794386 7.2365989 8.6077433 7.334436 8.6077433 C 7.4059322 8.6077433 7.488409 8.5871242 7.5824829 8.5457316 C 7.6765568 8.5005763 7.7667194 8.4367973 7.8532674 8.354012 C 7.9661553 8.244886 8.0716903 8.1091257 8.1695272 7.9473185 C 8.267364 7.7817485 8.3407504 7.6014232 8.3896688 7.4057495 C 8.4122466 7.3192015 8.4554064 7.2625915 8.5193766 7.2362508 C 8.5833468 7.2061471 8.6495641 7.2003828 8.7172974 7.2191976 C 8.7850306 7.2380124 8.8392024 7.2759246 8.8805949 7.332369 C 8.9219874 7.3850504 8.9315947 7.4545938 8.9090169 7.5411418 C 8.8450467 7.7857339 8.7510411 8.0116571 8.6268636 8.2186198 C 8.506449 8.4218194 8.3687669 8.5944588 8.2144857 8.7374512 C 8.0903081 8.8541029 7.9531428 8.9505465 7.8026245 9.0258057 C 7.6558692 9.1010648 7.5000061 9.1384603 7.334436 9.1384603 C 7.1237105 9.1384603 6.9409471 9.0689169 6.7866659 8.9296875 C 6.6323847 8.7866952 6.5551554 8.5871554 6.5551554 8.3312744 C 6.5551554 8.2069592 6.5720075 8.0389249 6.602181 7.8341471 C 6.4579628 8.0350727 6.3038887 8.234909 6.1376099 8.433077 C 5.9645138 8.6400396 5.7952006 8.8093528 5.6296305 8.9410563 C 5.4640604 9.0727598 5.2683636 9.1384603 5.0425863 9.1384603 C 4.8130459 9.1384603 4.6250349 9.0631525 4.4782796 8.9126343 C 4.3352872 8.762116 4.2638224 8.5760265 4.2638224 8.354012 C 4.2638224 8.2335974 4.2805987 8.0939939 4.3144653 7.9359497 C 4.348332 7.7779056 4.3876489 7.620121 4.4328044 7.4620768 C 4.4779597 7.3040326 4.5197148 7.1668673 4.5573446 7.0502157 C 4.5987372 6.929801 4.6265252 6.8506504 4.6415771 6.8130208 C 4.6942584 6.6625026 4.7115515 6.5492826 4.6927368 6.4740234 C 4.6739222 6.3987643 4.6398528 6.3484354 4.5909342 6.3220947 C 4.5420156 6.2919908 4.4969344 6.2766195 4.455542 6.2766195 C 4.3840458 6.2766195 4.3048951 6.3068459 4.2183472 6.3670532 C 4.1355619 6.4234979 4.0305446 6.5554153 3.9026042 6.7623779 C 3.8649746 6.8263482 3.8064432 6.9256013 3.7274211 7.0610677 C 3.648399 7.1927712 3.5601579 7.3453081 3.462321 7.5184041 C 3.3644841 7.6877372 3.2647143 7.8647363 3.1631144 8.0491211 C 3.0615146 8.233506 2.9655876 8.4124264 2.8752767 8.5855225 C 2.7849657 8.7548555 2.7077365 8.9030328 2.6437663 9.0309733 C 2.6098996 9.0987066 2.5628969 9.1423831 2.5026896 9.1611979 C 2.4424823 9.1800126 2.380108 9.1780882 2.3161377 9.1555135 C 2.2559304 9.1329355 2.2089277 9.0950233 2.175061 9.0423421 C 2.1411944 8.9858975 2.1321038 8.9221184 2.1471558 8.8506226 L 2.6210286 6.8579793 C 2.4441698 7.0348383 2.2671706 7.1912182 2.0903117 7.3266846 C 2.0225784 7.379366 1.9549565 7.3980637 1.8872233 7.3830119 C 1.8194901 7.36796 1.7633969 7.3319692 1.7182414 7.2755249 C 1.6768489 7.2190806 1.6557129 7.1572229 1.6557129 7.0894897 C 1.6594758 7.0217565 1.6954667 6.9618204 1.7631999 6.909139 C 1.921244 6.7887244 2.0924787 6.6548851 2.2768636 6.5081299 C 2.4650114 6.3613746 2.6453366 6.2016686 2.8184326 6.0285726 C 2.8824028 5.7802174 2.9543845 5.5279106 3.0334066 5.2720296 C 3.1124286 5.0161485 3.1968269 4.7753705 3.2871379 4.5495931 C 3.3812118 4.3238157 3.4771388 4.1261975 3.5749756 3.9568644 C 3.6765754 3.7875314 3.7782667 3.661378 3.8798665 3.5785929 C 3.9588886 3.513682 4.0370554 3.4837371 4.1139608 3.4886759 z M 10.717692 4.0152588 C 10.770609 4.0110255 10.822438 4.0218982 10.873238 4.0472982 C 10.940971 4.0774015 10.989896 4.1263257 11.019999 4.1940592 C 11.053866 4.2580292 11.051915 4.3314155 11.014315 4.4142008 C 10.972921 4.5045118 10.920155 4.6474415 10.856185 4.8431152 C 10.795978 5.038789 10.730278 5.2647123 10.658781 5.5205933 C 10.587285 5.7764743 10.519663 6.0417145 10.455693 6.3164103 C 10.391719 6.5911061 10.335109 6.8525034 10.286194 7.1008586 C 10.241041 7.3492136 10.212738 7.5616868 10.201444 7.7385457 C 10.193918 7.8326196 10.158444 7.902163 10.094474 7.9473185 C 10.034268 7.9887111 9.9666458 8.0060042 9.8913859 7.9984782 C 9.8161268 7.9909523 9.7499095 7.9626473 9.6934652 7.9137288 C 9.6407838 7.8610474 9.6182431 7.7876611 9.625769 7.6935872 C 9.6408209 7.4903876 9.6710473 7.2567785 9.7162028 6.9933716 C 9.7651212 6.7299646 9.8217312 6.4589601 9.8857015 6.1805013 C 9.9534347 5.8982796 10.022978 5.6277917 10.094474 5.3681478 C 10.169734 5.1047408 10.241198 4.8692104 10.308931 4.6622477 C 10.380427 4.4515222 10.442285 4.2898947 10.494967 4.177006 C 10.53636 4.090458 10.59297 4.0396124 10.664465 4.0245605 C 10.682339 4.0198569 10.700053 4.0166699 10.717692 4.0152588 z M 7.5189209 4.8555176 C 7.5631356 4.8545776 7.606905 4.8597302 7.650179 4.8710205 C 7.7404899 4.8935985 7.8157977 4.937275 7.876005 5.0012451 C 7.9362123 5.0652151 7.9664388 5.143849 7.9664388 5.2379232 C 7.9664388 5.3809156 7.919436 5.5089904 7.8253621 5.6218791 C 7.7350515 5.7310015 7.6127407 5.7856934 7.4584595 5.7856934 C 7.3530967 5.7856934 7.2590912 5.7477811 7.1763062 5.672522 C 7.097284 5.5934999 7.0574504 5.5014158 7.0574504 5.3960531 L 7.0574504 5.3789998 C 7.0612104 5.2284816 7.0933586 5.1138569 7.1535685 5.0348348 C 7.2175385 4.9520497 7.2947676 4.8992826 7.3850789 4.8767049 C 7.4302344 4.8635346 7.4747062 4.8564576 7.5189209 4.8555176 z M 9.8443604 8.2496257 C 9.8904566 8.2477442 9.9361474 8.2522893 9.9813029 8.2635783 C 10.071614 8.2861563 10.146922 8.3312376 10.207129 8.3989705 C 10.267336 8.4629405 10.297563 8.5478555 10.297563 8.6532186 C 10.297563 8.796211 10.252482 8.9256905 10.16217 9.0423421 C 10.07186 9.1552308 9.9437849 9.2118408 9.7782145 9.2118408 C 9.6653258 9.2118408 9.5693989 9.1725238 9.4903768 9.0935018 C 9.4113547 9.0107167 9.3720378 8.9181159 9.3720378 8.8165161 L 9.3720378 8.7942952 C 9.3757978 8.643777 9.4093504 8.526714 9.4733236 8.443929 C 9.5372942 8.357381 9.6145233 8.3012877 9.704834 8.2749471 C 9.7518709 8.2598951 9.7982641 8.2515071 9.8443604 8.2496257 z " />
   </symbol>
</svg>
